<svg width="40" height="40" viewBox="0 0 40 40" fill="none" xmlns="http://www.w3.org/2000/svg">
<path d="M15.6333 20.0384C16.7586 21.0134 18.1779 21.5836 19.6649 21.6582C21.152 21.7328 22.6212 21.3074 23.8384 20.4499C25.0556 19.5924 25.9507 18.352 26.381 16.9266C26.8114 15.5012 26.7521 13.9728 26.2128 12.585C25.6734 11.1972 24.685 10.0299 23.4051 9.26912C22.1251 8.50837 20.6274 8.19799 19.1506 8.38745C17.6737 8.57691 16.3028 9.25531 15.2564 10.3145C14.2099 11.3737 13.5482 12.7527 13.3766 14.2317C12.7833 17.2484 12.7899 20.8434 14.1499 24.0651C15.5866 27.4651 18.4849 30.3317 23.4333 31.6267C23.5926 31.6701 23.759 31.6814 23.9227 31.6601C24.0865 31.6387 24.2444 31.5852 24.3873 31.5025C24.5303 31.4198 24.6554 31.3095 24.7555 31.1782C24.8556 31.0468 24.9287 30.897 24.9705 30.7372C25.0124 30.5775 25.0221 30.411 24.9993 30.2474C24.9764 30.0839 24.9214 29.9265 24.8373 29.7843C24.7533 29.6422 24.6419 29.5181 24.5096 29.4192C24.3773 29.3204 24.2267 29.2487 24.0666 29.2084C19.8483 28.1034 17.5799 25.7584 16.4533 23.0917C16.0469 22.1144 15.7712 21.0878 15.6333 20.0384Z" fill="url(#paint0_linear_20_1709)"/>
<defs>
<linearGradient id="paint0_linear_20_1709" x1="13.0008" y1="8.33325" x2="33.3527" y2="20.25" gradientUnits="userSpaceOnUse">
<stop stop-color="#F76680"/>
<stop offset="1" stop-color="#57007B"/>
</linearGradient>
</defs>
</svg>
