<svg width="40" height="40" viewBox="0 0 40 40" fill="none" xmlns="http://www.w3.org/2000/svg">
<path d="M24.3667 20.0384C23.2414 21.0134 21.8221 21.5836 20.3351 21.6582C18.848 21.7328 17.3788 21.3074 16.1616 20.4499C14.9444 19.5924 14.0493 18.352 13.619 16.9266C13.1886 15.5012 13.2479 13.9728 13.7872 12.585C14.3266 11.1972 15.315 10.0299 16.5949 9.26912C17.8749 8.50837 19.3726 8.19799 20.8494 8.38745C22.3263 8.57691 23.6972 9.25531 24.7436 10.3145C25.7901 11.3737 26.4518 12.7527 26.6234 14.2317C27.2167 17.2484 27.2101 20.8434 25.8501 24.0651C24.4134 27.4651 21.5151 30.3317 16.5667 31.6267C16.4074 31.6701 16.241 31.6814 16.0773 31.6601C15.9135 31.6387 15.7556 31.5852 15.6127 31.5025C15.4697 31.4198 15.3446 31.3095 15.2445 31.1782C15.1444 31.0468 15.0713 30.897 15.0295 30.7372C14.9876 30.5775 14.9779 30.411 15.0007 30.2474C15.0236 30.0839 15.0786 29.9265 15.1627 29.7843C15.2467 29.6422 15.3581 29.5181 15.4904 29.4192C15.6227 29.3204 15.7733 29.2487 15.9334 29.2084C20.1517 28.1034 22.4201 25.7584 23.5467 23.0917C23.9531 22.1144 24.2288 21.0878 24.3667 20.0384Z" fill="url(#paint0_linear_20_1706)"/>
<defs>
<linearGradient id="paint0_linear_20_1706" x1="26.9992" y1="8.33325" x2="6.64735" y2="20.25" gradientUnits="userSpaceOnUse">
<stop stop-color="#F76680"/>
<stop offset="1" stop-color="#57007B"/>
</linearGradient>
</defs>
</svg>
