<svg width="58" height="59" viewBox="0 0 58 59" fill="none" xmlns="http://www.w3.org/2000/svg">
<rect x="0.5" y="1" width="57" height="57" rx="28.5" fill="#FAFAFA"/>
<rect x="0.5" y="1" width="57" height="57" rx="28.5" stroke="url(#paint0_linear_20_1122)"/>
<path d="M29 46.7266C38.514 46.7266 46.2266 39.014 46.2266 29.5C46.2266 19.986 38.514 12.2734 29 12.2734C19.486 12.2734 11.7734 19.986 11.7734 29.5C11.7734 39.014 19.486 46.7266 29 46.7266Z" fill="#F24976"/>
<path d="M25.8528 38.481H32.1479V41.6049H25.8528V38.481Z" fill="#445EA0"/>
<path d="M25.8528 38.481H27.2479V41.6049H25.8528V38.481Z" fill="#2E4C89"/>
<path d="M35.2647 43.4073C35.2645 43.4898 35.2316 43.5689 35.1732 43.6273C35.1149 43.6856 35.0358 43.7185 34.9533 43.7188H23.0467C22.9642 43.7185 22.8851 43.6856 22.8267 43.6273C22.7684 43.5689 22.7355 43.4898 22.7352 43.4073V41.8462C22.7355 41.7636 22.7684 41.6845 22.8267 41.6262C22.8851 41.5678 22.9642 41.5349 23.0467 41.5347H34.9532C35.0357 41.5349 35.1148 41.5678 35.1732 41.6262C35.2315 41.6846 35.2644 41.7636 35.2646 41.8462V43.4073H35.2647Z" fill="#293D7C"/>
<path d="M24.1305 43.4073V41.8462C24.1308 41.7636 24.1637 41.6845 24.222 41.6262C24.2804 41.5678 24.3594 41.5349 24.442 41.5347H23.0468C22.9643 41.5349 22.8852 41.5678 22.8269 41.6262C22.7685 41.6845 22.7356 41.7636 22.7354 41.8462V43.4073C22.7356 43.4898 22.7685 43.5689 22.8269 43.6273C22.8852 43.6856 22.9643 43.7185 23.0468 43.7188H24.442C24.3594 43.7185 24.2804 43.6856 24.222 43.6273C24.1637 43.5689 24.1308 43.4898 24.1305 43.4073Z" fill="#1A2B63"/>
<path d="M46.592 14.5142H11.408C11.1836 14.5142 11 14.6978 11 14.9223V38.1433C11 38.3677 11.1836 38.5513 11.408 38.5513H35.6282V37.3318C35.6283 37.272 35.652 37.2148 35.6942 37.1726C35.7365 37.1304 35.7937 37.1066 35.8534 37.1065H36.8017C36.9953 37.1065 37.1968 36.9632 37.2605 36.7802L37.4395 36.35C37.5238 36.18 37.4832 35.9366 37.3453 35.8001L36.6761 35.1361C36.6338 35.094 36.6104 35.0378 36.6104 34.9778C36.6104 34.9179 36.6338 34.8617 36.6762 34.8196L37.8898 33.6154C37.9109 33.5945 37.9359 33.5779 37.9634 33.5667C37.9909 33.5554 38.0204 33.5497 38.0501 33.5499C38.1108 33.5499 38.1678 33.5731 38.2103 33.6154L38.8795 34.2794C38.9652 34.3644 39.0976 34.4153 39.2335 34.4153C39.3066 34.4153 39.3764 34.4001 39.4352 34.3715L39.8712 34.1929C40.0508 34.1316 40.1945 33.9306 40.1945 33.7368V32.8003C40.1946 32.7406 40.2183 32.6833 40.2605 32.6411C40.3027 32.5989 40.36 32.5751 40.4197 32.575H42.138C42.1977 32.5751 42.255 32.5989 42.2972 32.6411C42.3394 32.6833 42.3631 32.7406 42.3632 32.8003V33.7368C42.3632 33.9307 42.5069 34.1316 42.6903 34.1944L43.1268 34.3734C43.1814 34.4002 43.2512 34.4153 43.3243 34.4153C43.4603 34.4153 43.5926 34.3645 43.6784 34.2794L44.3476 33.6155C44.3901 33.5732 44.447 33.5499 44.5078 33.5499C44.5685 33.5499 44.6254 33.5732 44.6679 33.6155L45.8814 34.8197C45.9023 34.8404 45.9189 34.865 45.9302 34.8922C45.9415 34.9194 45.9472 34.9486 45.9471 34.978C45.9471 35.0379 45.9237 35.0941 45.8814 35.1362L45.2124 35.8002C45.0745 35.9367 45.0339 36.1801 45.12 36.3543L45.2987 36.7842C45.3607 36.9633 45.5622 37.1066 45.756 37.1066H46.7043C46.764 37.1067 46.8212 37.1304 46.8634 37.1726C46.9057 37.2149 46.9294 37.2721 46.9295 37.3318V38.3716C46.9738 38.3064 46.9998 38.2278 46.9998 38.1434V14.9223C47 14.6978 46.8164 14.5142 46.592 14.5142Z" fill="#293D7C"/>
<path d="M12.791 34.4709C12.7912 34.5358 12.8171 34.598 12.8629 34.6438C12.9088 34.6897 12.971 34.7156 13.0358 34.7158H36.7804L37.8898 33.615C37.9109 33.5941 37.9359 33.5775 37.9634 33.5663C37.9909 33.555 38.0204 33.5493 38.0501 33.5495C38.1108 33.5495 38.1678 33.5728 38.2103 33.615L38.8795 34.279C38.9652 34.3641 39.0976 34.415 39.2335 34.415C39.3066 34.415 39.3764 34.3998 39.4352 34.3712L39.8712 34.1925C40.0508 34.1313 40.1945 33.9302 40.1945 33.7364V32.7999C40.1946 32.7402 40.2183 32.6829 40.2605 32.6407C40.3027 32.5985 40.36 32.5747 40.4197 32.5747H42.138C42.1977 32.5747 42.255 32.5985 42.2972 32.6407C42.3394 32.6829 42.3631 32.7402 42.3632 32.7999V33.7364C42.3632 33.9303 42.5069 34.1313 42.6904 34.194L43.1268 34.3731C43.1814 34.3998 43.2512 34.415 43.3243 34.415C43.4603 34.415 43.5926 34.3641 43.6784 34.279L44.3476 33.6151C44.3902 33.5728 44.447 33.5496 44.5078 33.5496C44.5685 33.5496 44.6254 33.5728 44.668 33.6151L45.2088 34.1519V18.5249H12.791V34.4709Z" fill="white"/>
<path d="M14.1862 34.4709V18.5249H12.791V34.4709C12.7912 34.5358 12.8171 34.598 12.8629 34.6438C12.9088 34.6897 12.971 34.7156 13.0358 34.7158H14.431C14.3661 34.7156 14.3039 34.6897 14.258 34.6439C14.2122 34.598 14.1863 34.5358 14.1862 34.4709Z" fill="#D9EAFC"/>
<path d="M28.5511 29.3265C27.9093 28.6847 26.9703 28.5175 26.173 28.8237L23.4829 26.1337L22.9421 26.6744C22.9347 26.6818 22.9291 26.6908 22.9256 26.7007C22.9221 26.7105 22.9208 26.721 22.9219 26.7315C22.9387 26.8885 22.895 27.046 22.7997 27.172C22.791 27.1834 22.786 27.1971 22.7854 27.2114C22.7848 27.2257 22.7885 27.2399 22.7962 27.252C22.946 27.4899 22.93 27.7793 22.76 27.9645L24.896 30.1006C24.5897 30.8979 24.7569 31.837 25.3988 32.4789C25.9544 33.0345 26.7406 33.255 27.5019 33.0687C27.5213 33.064 27.5392 33.0541 27.5535 33.0402C27.5679 33.0263 27.5783 33.0088 27.5837 32.9895C27.5947 32.9502 27.5837 32.9081 27.5548 32.8793L26.1826 31.5069L27.5791 30.1104L28.9514 31.4828C28.9656 31.4969 28.9833 31.507 29.0026 31.5121C29.022 31.5171 29.0423 31.5169 29.0616 31.5115C29.0809 31.5061 29.0984 31.4957 29.1123 31.4813C29.1262 31.4669 29.136 31.4491 29.1408 31.4297C29.3273 30.6683 29.1068 29.8822 28.5511 29.3265ZM21.4715 26.1713C21.592 26.1713 21.7117 26.2066 21.8178 26.2734C21.8299 26.281 21.844 26.2847 21.8583 26.2841C21.8726 26.2834 21.8864 26.2785 21.8978 26.2699C22.0057 26.1878 22.1376 26.1438 22.2731 26.1444C22.2948 26.1444 22.3166 26.1455 22.3383 26.1478C22.3487 26.1489 22.3592 26.1476 22.3691 26.1441C22.3789 26.1406 22.3879 26.1349 22.3952 26.1275L22.9361 25.5867L20.246 22.8967C20.5523 22.0993 20.3851 21.1603 19.7433 20.5186C19.1876 19.9629 18.4014 19.7423 17.6401 19.9287C17.6207 19.9335 17.6029 19.9434 17.5885 19.9573C17.5741 19.9712 17.5637 19.9887 17.5582 20.008C17.5528 20.0272 17.5527 20.0476 17.5578 20.067C17.5629 20.0863 17.573 20.104 17.5872 20.1181L18.9594 21.4904L17.5629 22.887L16.1906 21.5146C16.1618 21.4858 16.1196 21.4748 16.0804 21.4858C16.0617 21.4909 16.0447 21.5009 16.031 21.5146C16.0164 21.5292 16.0061 21.5475 16.0012 21.5676C15.8148 22.3288 16.0354 23.1151 16.5909 23.6707C17.2328 24.3126 18.1718 24.4798 18.9692 24.1735L21.1054 26.3097C21.2024 26.2206 21.3313 26.1713 21.4715 26.1713Z" fill="#FF9518"/>
<path d="M29 37.7276C29.6084 37.7276 30.1016 37.2344 30.1016 36.626C30.1016 36.0176 29.6084 35.5244 29 35.5244C28.3916 35.5244 27.8984 36.0176 27.8984 36.626C27.8984 37.2344 28.3916 37.7276 29 37.7276Z" fill="#445EA0"/>
<path d="M44.9642 16.5947H13.0358C12.971 16.5949 12.9088 16.6208 12.8629 16.6666C12.8171 16.7125 12.7912 16.7747 12.791 16.8396V18.5953H45.2089V16.8396C45.2087 16.7747 45.1829 16.7125 45.1371 16.6666C45.0912 16.6208 45.029 16.5949 44.9642 16.5947Z" fill="#5DC1D8"/>
<path d="M14.431 16.5947H13.0358C12.971 16.5949 12.9088 16.6208 12.8629 16.6666C12.8171 16.7125 12.7912 16.7747 12.791 16.8396V18.5953H14.1862V16.8396C14.1863 16.7747 14.2122 16.7125 14.2581 16.6666C14.3039 16.6208 14.3661 16.5949 14.431 16.5947Z" fill="#28A5A5"/>
<path d="M40.1243 43.564C40.1245 43.6423 40.1557 43.7173 40.2111 43.7727C40.2664 43.828 40.3415 43.8592 40.4198 43.8594H42.1381C42.2164 43.8592 42.2914 43.828 42.3468 43.7726C42.4021 43.7173 42.4333 43.6423 42.4336 43.564V42.6276C42.4336 42.4651 42.5594 42.289 42.7132 42.2363L43.1536 42.0559C43.2998 41.9847 43.5137 42.0202 43.629 42.1347L44.2983 42.7988C44.4136 42.9132 44.6023 42.9132 44.7177 42.7988L45.9311 41.5945C45.9586 41.5672 45.9804 41.5348 45.9952 41.499C46.0101 41.4633 46.0177 41.425 46.0177 41.3863C46.0177 41.3476 46.0101 41.3093 45.9952 41.2736C45.9804 41.2379 45.9586 41.2054 45.9311 41.1781L45.2621 40.5141C45.1466 40.3996 45.1112 40.1867 45.1833 40.041L45.3639 39.6069C45.4172 39.4534 45.5938 39.3277 45.7562 39.3277H46.7045C46.7828 39.3275 46.8578 39.2964 46.9132 39.241C46.9686 39.1857 46.9998 39.1106 47 39.0323V37.3316C46.9998 37.2533 46.9686 37.1782 46.9132 37.1229C46.8578 37.0675 46.7828 37.0363 46.7045 37.036H45.7562C45.5937 37.036 45.4172 36.9105 45.3639 36.7569L45.1833 36.3228C45.1113 36.1771 45.1466 35.9642 45.2621 35.8498L45.9311 35.1858C45.9586 35.1585 45.9804 35.1261 45.9952 35.0903C46.0101 35.0546 46.0177 35.0163 46.0177 34.9776C46.0177 34.9389 46.0101 34.9006 45.9952 34.8649C45.9804 34.8291 45.9586 34.7967 45.9311 34.7694L44.7177 33.5652C44.6023 33.4507 44.4136 33.4507 44.2983 33.5652L43.629 34.2292C43.5137 34.3436 43.2997 34.3791 43.1536 34.308L42.7132 34.1276C42.5594 34.075 42.4336 33.8989 42.4336 33.7364V32.7999C42.4334 32.7216 42.4022 32.6466 42.3468 32.5912C42.2914 32.5358 42.2164 32.5046 42.1381 32.5044H40.4198C40.3415 32.5046 40.2664 32.5358 40.2111 32.5912C40.1557 32.6466 40.1245 32.7216 40.1243 32.7999V33.7364C40.1243 33.8989 39.9985 34.0749 39.8447 34.1276L39.4044 34.308C39.2585 34.3791 39.0444 34.3437 38.929 34.2292L38.2598 33.5652C38.1444 33.4507 37.9557 33.4507 37.8403 33.5652L36.6265 34.7694C36.5991 34.7967 36.5774 34.8292 36.5625 34.8649C36.5477 34.9006 36.5401 34.9389 36.5401 34.9776C36.5401 35.0163 36.5477 35.0546 36.5625 35.0903C36.5774 35.126 36.5991 35.1585 36.6265 35.1858L37.2958 35.8498C37.4112 35.9642 37.4466 36.177 37.3746 36.3228L37.194 36.7569C37.1406 36.9105 36.9641 37.036 36.8016 37.036H35.8534C35.7751 37.0363 35.7 37.0675 35.6447 37.1228C35.5893 37.1782 35.5581 37.2532 35.5579 37.3316V39.0323C35.5581 39.1106 35.5893 39.1857 35.6447 39.241C35.7 39.2964 35.7751 39.3275 35.8534 39.3277H36.8016C36.9642 39.3277 37.1406 39.4534 37.194 39.6069L37.3747 40.0411C37.4467 40.1867 37.4114 40.3996 37.296 40.5141L36.6265 41.1781C36.5991 41.2054 36.5774 41.2379 36.5625 41.2736C36.5477 41.3093 36.5401 41.3476 36.5401 41.3863C36.5401 41.425 36.5477 41.4633 36.5625 41.499C36.5774 41.5347 36.5991 41.5672 36.6265 41.5945L37.8403 42.7988C37.9557 42.9132 38.1444 42.9132 38.2598 42.7987L38.9289 42.1347C39.0442 42.0202 39.2582 41.9847 39.4043 42.0559L39.8447 42.2363C39.9985 42.2889 40.1243 42.465 40.1243 42.6276V43.564Z" fill="#FF9518"/>
<path d="M41.279 40.9146C39.7582 40.9146 38.5255 39.6914 38.5255 38.1822C38.5256 36.6729 39.7582 35.4497 41.279 35.4497C42.7997 35.4497 44.0324 36.6729 44.0324 38.182C44.0324 39.6913 42.7997 40.9146 41.279 40.9146Z" fill="#FFAF10"/>
<path d="M39.3632 38.1822C39.3632 36.8142 40.3758 35.6812 41.6977 35.481C41.5591 35.4601 41.4191 35.4496 41.279 35.4497C39.7582 35.4497 38.5256 36.6729 38.5255 38.1822C38.5255 39.6914 39.7582 40.9146 41.279 40.9146C41.4213 40.9146 41.5613 40.9039 41.6977 40.8832C40.3758 40.683 39.3632 39.5501 39.3632 38.1822Z" fill="#FF9518"/>
<path d="M41.279 41.3579C39.5163 41.3579 38.0823 39.9331 38.0823 38.1822C38.0823 36.431 39.5164 35.0063 41.279 35.0063C43.0416 35.0063 44.4757 36.431 44.4757 38.182C44.4757 39.9331 43.0416 41.3579 41.279 41.3579ZM41.279 35.8928C40.0053 35.8928 38.9689 36.9197 38.9688 38.1822C38.9688 39.4444 40.0052 40.4715 41.279 40.4715C42.5528 40.4715 43.5891 39.4445 43.5892 38.182C43.5892 36.9197 42.5528 35.8928 41.279 35.8928Z" fill="#DB722C"/>
<path d="M41.2789 39.3373C40.6361 39.3373 40.115 38.82 40.115 38.1822C40.115 37.544 40.6361 37.0269 41.2789 37.0269C41.922 37.0269 42.4429 37.5439 42.4429 38.182C42.4429 38.82 41.922 39.3373 41.2789 39.3373Z" fill="#FFAF10"/>
<path d="M40.9526 38.1821C40.9526 37.6908 41.262 37.2722 41.6977 37.1053C41.5641 37.0537 41.4222 37.0271 41.2789 37.0269C40.6361 37.0269 40.115 37.5439 40.115 38.1822C40.115 38.82 40.6361 39.3373 41.2789 39.3373C41.4268 39.3373 41.5676 39.3088 41.6977 39.2589C41.2621 39.0919 40.9526 38.6734 40.9526 38.1821Z" fill="#FF9518"/>
<path d="M41.279 39.7806C40.3928 39.7806 39.6718 39.0636 39.6718 38.1823C39.6718 37.3008 40.3928 36.584 41.279 36.584C42.1652 36.584 42.8862 37.3008 42.8862 38.1822C42.8859 39.0636 42.1651 39.7806 41.279 39.7806ZM41.279 37.4703C40.8815 37.4703 40.5583 37.7897 40.5583 38.1823C40.5583 38.5746 40.8815 38.8941 41.279 38.8941C41.6764 38.8941 41.9996 38.5746 41.9996 38.1821C41.9996 37.7898 41.6764 37.4703 41.279 37.4703Z" fill="#DB722C"/>
<path d="M20.8748 27.4334L21.6362 28.1948C21.6975 28.2561 21.7454 28.3293 21.777 28.41L22.1069 28.0801C22.0279 28.0457 21.9561 27.9968 21.8952 27.9359L21.1338 27.1745C21.0728 27.1137 21.0237 27.0419 20.9892 26.963L20.6594 27.2928C20.7401 27.3243 20.8135 27.3722 20.8748 27.4334ZM28.7704 20.6942L28.3754 20.2992C28.3315 20.2553 28.2499 20.2417 28.1942 20.2688L27.3141 20.6983C27.2583 20.7255 27.1904 20.7934 27.1633 20.8492L26.772 21.6513L22.3454 26.0779C22.1502 26.0576 21.9493 26.1193 21.7984 26.2618C21.849 26.2913 21.8966 26.327 21.9388 26.3693L22.7002 27.1306C22.742 27.1725 22.7783 27.2196 22.8082 27.2707C22.9505 27.1198 23.012 26.9191 22.9918 26.7242L27.4182 22.2978L28.2205 21.9064C28.2763 21.8792 28.3442 21.8113 28.3714 21.7555L28.8008 20.8754C28.828 20.8197 28.8142 20.7381 28.7704 20.6942Z" fill="#445EA0"/>
<path d="M22.7949 28.0305C22.5461 28.2793 22.1189 28.2591 21.8455 27.9856L21.084 27.2242C20.8106 26.9507 20.7904 26.5235 21.0391 26.2747C21.2879 26.026 21.7151 26.0462 21.9885 26.3197L22.75 27.081C23.0234 27.3545 23.0437 27.7817 22.7949 28.0305Z" fill="#293D7C"/>
<path d="M41.2648 21.9053H31.9926C31.7013 21.9053 31.4652 21.6692 31.4652 21.3779C31.4652 21.0866 31.7013 20.8506 31.9926 20.8506H41.2647C41.556 20.8506 41.7921 21.0866 41.7921 21.3779C41.7921 21.4472 41.7785 21.5158 41.752 21.5797C41.7255 21.6437 41.6867 21.7019 41.6377 21.7508C41.5887 21.7998 41.5306 21.8386 41.4666 21.8651C41.4026 21.8916 41.3341 21.9053 41.2648 21.9053ZM41.2648 23.6271H31.9926C31.7013 23.6271 31.4652 23.391 31.4652 23.0997C31.4652 22.8084 31.7013 22.5724 31.9926 22.5724H41.2647C41.556 22.5724 41.7921 22.8084 41.7921 23.0997C41.7921 23.169 41.7785 23.2376 41.752 23.3015C41.7255 23.3655 41.6866 23.4237 41.6377 23.4726C41.5887 23.5216 41.5306 23.5604 41.4666 23.5869C41.4026 23.6134 41.3341 23.6271 41.2648 23.6271ZM41.2648 25.3488H31.9926C31.7013 25.3488 31.4652 25.1128 31.4652 24.8215C31.4652 24.5302 31.7013 24.2941 31.9926 24.2941H41.2647C41.556 24.2941 41.7921 24.5302 41.7921 24.8215C41.7921 24.8907 41.7785 24.9593 41.752 25.0233C41.7255 25.0873 41.6867 25.1454 41.6377 25.1944C41.5887 25.2434 41.5306 25.2822 41.4666 25.3087C41.4026 25.3352 41.3341 25.3488 41.2648 25.3488Z" fill="#69CDFF"/>
<path d="M41.2648 28.2329H31.9926C31.7013 28.2329 31.4652 27.9969 31.4652 27.7056C31.4652 27.4143 31.7013 27.1782 31.9926 27.1782H41.2647C41.556 27.1782 41.7921 27.4143 41.7921 27.7056C41.7921 27.9969 41.556 28.2329 41.2648 28.2329ZM41.2648 29.9547H31.9926C31.7013 29.9547 31.4652 29.7186 31.4652 29.4273C31.4652 29.136 31.7013 28.9 31.9926 28.9H41.2647C41.556 28.9 41.7921 29.136 41.7921 29.4273C41.7921 29.4966 41.7785 29.5651 41.752 29.6291C41.7255 29.6931 41.6866 29.7512 41.6377 29.8002C41.5887 29.8492 41.5306 29.888 41.4666 29.9145C41.4026 29.941 41.3341 29.9547 41.2648 29.9547ZM36.5998 31.6764H31.9926C31.7013 31.6764 31.4652 31.4404 31.4652 31.1491C31.4652 30.8577 31.7013 30.6217 31.9926 30.6217H36.5998C36.8911 30.6217 37.1271 30.8577 37.1271 31.1491C37.1271 31.4404 36.8911 31.6764 36.5998 31.6764Z" fill="#37C47A"/>
<path d="M18.4238 32.4016C18.1504 32.6751 17.7029 32.6751 17.4294 32.4016L16.668 31.6403C16.3945 31.3668 16.3945 30.9194 16.668 30.6459L19.9301 27.3838C20.2035 27.1103 20.651 27.1103 20.9244 27.3838L21.6858 28.1453C21.9593 28.4187 21.9593 28.8662 21.6858 29.1397L18.4238 32.4016Z" fill="#293D7C"/>
<path d="M17.8522 31.6402C17.5788 31.3667 17.5788 30.9193 17.8522 30.6458L21.0193 27.4787L20.9244 27.3837C20.651 27.1102 20.2035 27.1102 19.9301 27.3837L16.668 30.6457C16.3945 30.9192 16.3945 31.3666 16.668 31.6401L17.4294 32.4015C17.7028 32.675 18.1503 32.675 18.4238 32.4015L18.5187 32.3066L17.8522 31.6402ZM21.4961 26.7318C21.7448 26.483 22.172 26.5032 22.4455 26.7767L21.9885 26.3197C21.715 26.0462 21.2877 26.026 21.039 26.2747C20.7903 26.5235 20.8105 26.9507 21.084 27.2242L21.5408 27.681C21.2675 27.4075 21.2474 26.9805 21.4961 26.7318Z" fill="#1A2B63"/>
<defs>
<linearGradient id="paint0_linear_20_1122" x1="58" y1="0.5" x2="0" y2="58.5" gradientUnits="userSpaceOnUse">
<stop stop-color="#F76680"/>
<stop offset="1" stop-color="#57007B"/>
</linearGradient>
</defs>
</svg>
